<svg width="258" height="21" viewBox="0 0 258 21" fill="none" xmlns="http://www.w3.org/2000/svg">
<path d="M0.203125 20.4H20.2031V0.4H0.203125V20.4ZM34.3926 15.4062C34.3926 15.0742 34.3405 14.7812 34.2363 14.5273C34.1387 14.2669 33.9629 14.0326 33.709 13.8242C33.4616 13.6159 33.1165 13.4173 32.6738 13.2285C32.2376 13.0397 31.6842 12.8477 31.0137 12.6523C30.3105 12.444 29.6758 12.2129 29.1094 11.959C28.543 11.6986 28.0579 11.4023 27.6543 11.0703C27.2507 10.7383 26.9414 10.3574 26.7266 9.92773C26.5117 9.49805 26.4043 9.00651 26.4043 8.45312C26.4043 7.89974 26.5182 7.38867 26.7461 6.91992C26.974 6.45117 27.2995 6.04427 27.7227 5.69922C28.1523 5.34766 28.6634 5.07422 29.2559 4.87891C29.8483 4.68359 30.5091 4.58594 31.2383 4.58594C32.306 4.58594 33.2109 4.79102 33.9531 5.20117C34.7018 5.60482 35.2715 6.13542 35.6621 6.79297C36.0527 7.44401 36.248 8.14062 36.248 8.88281H34.373C34.373 8.34896 34.2591 7.87695 34.0312 7.4668C33.8034 7.05013 33.4583 6.72461 32.9961 6.49023C32.5339 6.24935 31.9479 6.12891 31.2383 6.12891C30.5677 6.12891 30.0143 6.22982 29.5781 6.43164C29.1419 6.63346 28.8164 6.9069 28.6016 7.25195C28.3932 7.59701 28.2891 7.99089 28.2891 8.43359C28.2891 8.73307 28.3509 9.00651 28.4746 9.25391C28.6048 9.49479 28.8034 9.7194 29.0703 9.92773C29.3438 10.1361 29.6888 10.3281 30.1055 10.5039C30.5286 10.6797 31.0332 10.849 31.6191 11.0117C32.4264 11.2396 33.123 11.4935 33.709 11.7734C34.2949 12.0534 34.7767 12.3691 35.1543 12.7207C35.5384 13.0658 35.8216 13.4596 36.0039 13.9023C36.1927 14.3385 36.2871 14.8333 36.2871 15.3867C36.2871 15.9661 36.1699 16.4902 35.9355 16.959C35.7012 17.4277 35.3659 17.8281 34.9297 18.1602C34.4935 18.4922 33.9694 18.7493 33.3574 18.9316C32.752 19.1074 32.0749 19.1953 31.3262 19.1953C30.6686 19.1953 30.0208 19.1042 29.3828 18.9219C28.7513 18.7396 28.1751 18.4661 27.6543 18.1016C27.14 17.737 26.7266 17.2878 26.4141 16.7539C26.1081 16.2135 25.9551 15.5885 25.9551 14.8789H27.8301C27.8301 15.3672 27.9245 15.7871 28.1133 16.1387C28.3021 16.4837 28.5592 16.7702 28.8848 16.998C29.2168 17.2259 29.5911 17.3952 30.0078 17.5059C30.431 17.61 30.8704 17.6621 31.3262 17.6621C31.9837 17.6621 32.5404 17.571 32.9961 17.3887C33.4518 17.2064 33.7969 16.946 34.0312 16.6074C34.2721 16.2689 34.3926 15.8685 34.3926 15.4062ZM42.8008 19.1953C42.0651 19.1953 41.3978 19.0716 40.7988 18.8242C40.2064 18.5703 39.6953 18.2155 39.2656 17.7598C38.8424 17.304 38.5169 16.7637 38.2891 16.1387C38.0612 15.5137 37.9473 14.8301 37.9473 14.0879V13.6777C37.9473 12.8184 38.0742 12.0534 38.3281 11.3828C38.582 10.7057 38.9271 10.1328 39.3633 9.66406C39.7995 9.19531 40.2943 8.84049 40.8477 8.59961C41.401 8.35872 41.974 8.23828 42.5664 8.23828C43.3216 8.23828 43.9727 8.36849 44.5195 8.62891C45.0729 8.88932 45.5254 9.25391 45.877 9.72266C46.2285 10.1849 46.4889 10.7318 46.6582 11.3633C46.8275 11.9883 46.9121 12.6719 46.9121 13.4141V14.2246H39.0215V12.75H45.1055V12.6133C45.0794 12.1445 44.9818 11.6888 44.8125 11.2461C44.6497 10.8034 44.3893 10.4388 44.0312 10.1523C43.6732 9.86589 43.1849 9.72266 42.5664 9.72266C42.1562 9.72266 41.7786 9.81055 41.4336 9.98633C41.0885 10.1556 40.7923 10.4095 40.5449 10.748C40.2975 11.0866 40.1055 11.5 39.9688 11.9883C39.832 12.4766 39.7637 13.0397 39.7637 13.6777V14.0879C39.7637 14.5892 39.832 15.0612 39.9688 15.5039C40.112 15.9401 40.3171 16.3242 40.584 16.6562C40.8574 16.9883 41.1862 17.2487 41.5703 17.4375C41.9609 17.6263 42.4036 17.7207 42.8984 17.7207C43.5365 17.7207 44.0768 17.5905 44.5195 17.3301C44.9622 17.0697 45.3496 16.7214 45.6816 16.2852L46.7754 17.1543C46.5475 17.4993 46.2578 17.8281 45.9062 18.1406C45.5547 18.4531 45.1217 18.707 44.6074 18.9023C44.0996 19.0977 43.4974 19.1953 42.8008 19.1953ZM55.252 17.1934V11.7539C55.252 11.3372 55.1673 10.9759 54.998 10.6699C54.8353 10.3574 54.5879 10.1165 54.2559 9.94727C53.9238 9.77799 53.5137 9.69336 53.0254 9.69336C52.5697 9.69336 52.1693 9.77148 51.8242 9.92773C51.4857 10.084 51.2188 10.2891 51.0234 10.543C50.8346 10.7969 50.7402 11.0703 50.7402 11.3633H48.9336C48.9336 10.9857 49.0312 10.6113 49.2266 10.2402C49.4219 9.86914 49.7018 9.53385 50.0664 9.23438C50.4375 8.92839 50.8802 8.6875 51.3945 8.51172C51.9154 8.32943 52.4948 8.23828 53.1328 8.23828C53.901 8.23828 54.5781 8.36849 55.1641 8.62891C55.7565 8.88932 56.2188 9.2832 56.5508 9.81055C56.8893 10.3314 57.0586 10.9857 57.0586 11.7734V16.6953C57.0586 17.0469 57.0879 17.4212 57.1465 17.8184C57.2116 18.2155 57.306 18.5573 57.4297 18.8438V19H55.5449C55.4538 18.7917 55.3822 18.515 55.3301 18.1699C55.278 17.8184 55.252 17.4928 55.252 17.1934ZM55.5645 12.5938L55.584 13.8633H53.7578C53.2435 13.8633 52.7845 13.9056 52.3809 13.9902C51.9772 14.0684 51.6387 14.1888 51.3652 14.3516C51.0918 14.5143 50.8835 14.7194 50.7402 14.9668C50.597 15.2077 50.5254 15.4909 50.5254 15.8164C50.5254 16.1484 50.6003 16.4512 50.75 16.7246C50.8997 16.998 51.1243 17.2161 51.4238 17.3789C51.7298 17.5352 52.1042 17.6133 52.5469 17.6133C53.1003 17.6133 53.5885 17.4961 54.0117 17.2617C54.4349 17.0273 54.7702 16.7409 55.0176 16.4023C55.2715 16.0638 55.4082 15.735 55.4277 15.416L56.1992 16.2852C56.1536 16.5586 56.0299 16.8613 55.8281 17.1934C55.6263 17.5254 55.3561 17.8444 55.0176 18.1504C54.6855 18.4499 54.2884 18.7005 53.8262 18.9023C53.3704 19.0977 52.8561 19.1953 52.2832 19.1953C51.5671 19.1953 50.9388 19.0553 50.3984 18.7754C49.8646 18.4954 49.4479 18.1211 49.1484 17.6523C48.8555 17.1771 48.709 16.6465 48.709 16.0605C48.709 15.4941 48.8197 14.9961 49.041 14.5664C49.2624 14.1302 49.5814 13.7689 49.998 13.4824C50.4147 13.1895 50.916 12.9681 51.502 12.8184C52.0879 12.6686 52.7422 12.5938 53.4648 12.5938H55.5645ZM61.707 10.0938V19H59.9004V8.43359H61.6582L61.707 10.0938ZM65.0078 8.375L64.998 10.0547C64.8483 10.0221 64.7051 10.0026 64.5684 9.99609C64.4382 9.98307 64.2884 9.97656 64.1191 9.97656C63.7025 9.97656 63.3346 10.0417 63.0156 10.1719C62.6966 10.3021 62.4264 10.4844 62.2051 10.7188C61.9837 10.9531 61.8079 11.2331 61.6777 11.5586C61.554 11.8776 61.4727 12.2292 61.4336 12.6133L60.9258 12.9062C60.9258 12.2682 60.9876 11.6693 61.1113 11.1094C61.2415 10.5495 61.4401 10.0547 61.707 9.625C61.974 9.1888 62.3125 8.85026 62.7227 8.60938C63.1393 8.36198 63.6341 8.23828 64.207 8.23828C64.3372 8.23828 64.487 8.25456 64.6562 8.28711C64.8255 8.31315 64.9427 8.34245 65.0078 8.375ZM70.7109 17.7109C71.1406 17.7109 71.5378 17.623 71.9023 17.4473C72.2669 17.2715 72.5664 17.0306 72.8008 16.7246C73.0352 16.4121 73.1686 16.0573 73.2012 15.6602H74.9199C74.8874 16.2852 74.6758 16.8678 74.2852 17.4082C73.901 17.9421 73.3965 18.375 72.7715 18.707C72.1465 19.0326 71.4596 19.1953 70.7109 19.1953C69.9167 19.1953 69.2233 19.0553 68.6309 18.7754C68.0449 18.4954 67.5566 18.1113 67.166 17.623C66.7819 17.1348 66.4922 16.5749 66.2969 15.9434C66.1081 15.3053 66.0137 14.6315 66.0137 13.9219V13.5117C66.0137 12.8021 66.1081 12.1315 66.2969 11.5C66.4922 10.862 66.7819 10.2988 67.166 9.81055C67.5566 9.32227 68.0449 8.93815 68.6309 8.6582C69.2233 8.37826 69.9167 8.23828 70.7109 8.23828C71.5378 8.23828 72.2604 8.40755 72.8789 8.74609C73.4974 9.07812 73.9824 9.53385 74.334 10.1133C74.6921 10.6862 74.8874 11.3372 74.9199 12.0664H73.2012C73.1686 11.6302 73.0449 11.2363 72.8301 10.8848C72.6217 10.5332 72.3353 10.2533 71.9707 10.0449C71.6126 9.83008 71.1927 9.72266 70.7109 9.72266C70.1576 9.72266 69.6921 9.83333 69.3145 10.0547C68.9434 10.2695 68.6471 10.5625 68.4258 10.9336C68.2109 11.2982 68.0547 11.7051 67.957 12.1543C67.8659 12.597 67.8203 13.0495 67.8203 13.5117V13.9219C67.8203 14.3841 67.8659 14.8398 67.957 15.2891C68.0482 15.7383 68.2012 16.1452 68.416 16.5098C68.6374 16.8743 68.9336 17.1673 69.3047 17.3887C69.6823 17.6035 70.151 17.7109 70.7109 17.7109ZM78.7578 4V19H76.9512V4H78.7578ZM78.3281 13.3164L77.5762 13.2871C77.5827 12.5645 77.6901 11.8971 77.8984 11.2852C78.1068 10.6667 78.3997 10.1296 78.7773 9.67383C79.1549 9.2181 79.6042 8.86654 80.125 8.61914C80.6523 8.36523 81.235 8.23828 81.873 8.23828C82.3939 8.23828 82.8626 8.3099 83.2793 8.45312C83.696 8.58984 84.0508 8.8112 84.3438 9.11719C84.6432 9.42318 84.8711 9.82031 85.0273 10.3086C85.1836 10.7904 85.2617 11.3796 85.2617 12.0762V19H83.4453V12.0566C83.4453 11.5033 83.3639 11.0605 83.2012 10.7285C83.0384 10.39 82.8008 10.1458 82.4883 9.99609C82.1758 9.83984 81.7917 9.76172 81.3359 9.76172C80.8867 9.76172 80.4766 9.85612 80.1055 10.0449C79.7409 10.2337 79.4251 10.4941 79.1582 10.8262C78.8978 11.1582 78.6927 11.5391 78.543 11.9688C78.3997 12.3919 78.3281 12.8411 78.3281 13.3164ZM99.1582 17.1934V11.7539C99.1582 11.3372 99.0736 10.9759 98.9043 10.6699C98.7415 10.3574 98.4941 10.1165 98.1621 9.94727C97.8301 9.77799 97.4199 9.69336 96.9316 9.69336C96.4759 9.69336 96.0755 9.77148 95.7305 9.92773C95.3919 10.084 95.125 10.2891 94.9297 10.543C94.7409 10.7969 94.6465 11.0703 94.6465 11.3633H92.8398C92.8398 10.9857 92.9375 10.6113 93.1328 10.2402C93.3281 9.86914 93.6081 9.53385 93.9727 9.23438C94.3438 8.92839 94.7865 8.6875 95.3008 8.51172C95.8216 8.32943 96.401 8.23828 97.0391 8.23828C97.8073 8.23828 98.4844 8.36849 99.0703 8.62891C99.6628 8.88932 100.125 9.2832 100.457 9.81055C100.796 10.3314 100.965 10.9857 100.965 11.7734V16.6953C100.965 17.0469 100.994 17.4212 101.053 17.8184C101.118 18.2155 101.212 18.5573 101.336 18.8438V19H99.4512C99.36 18.7917 99.2884 18.515 99.2363 18.1699C99.1842 17.8184 99.1582 17.4928 99.1582 17.1934ZM99.4707 12.5938L99.4902 13.8633H97.6641C97.1497 13.8633 96.6908 13.9056 96.2871 13.9902C95.8835 14.0684 95.5449 14.1888 95.2715 14.3516C94.998 14.5143 94.7897 14.7194 94.6465 14.9668C94.5033 15.2077 94.4316 15.4909 94.4316 15.8164C94.4316 16.1484 94.5065 16.4512 94.6562 16.7246C94.806 16.998 95.0306 17.2161 95.3301 17.3789C95.6361 17.5352 96.0104 17.6133 96.4531 17.6133C97.0065 17.6133 97.4948 17.4961 97.918 17.2617C98.3411 17.0273 98.6764 16.7409 98.9238 16.4023C99.1777 16.0638 99.3145 15.735 99.334 15.416L100.105 16.2852C100.06 16.5586 99.9362 16.8613 99.7344 17.1934C99.5326 17.5254 99.2624 17.8444 98.9238 18.1504C98.5918 18.4499 98.1947 18.7005 97.7324 18.9023C97.2767 19.0977 96.7624 19.1953 96.1895 19.1953C95.4733 19.1953 94.8451 19.0553 94.3047 18.7754C93.7708 18.4954 93.3542 18.1211 93.0547 17.6523C92.7617 17.1771 92.6152 16.6465 92.6152 16.0605C92.6152 15.4941 92.7259 14.9961 92.9473 14.5664C93.1686 14.1302 93.4876 13.7689 93.9043 13.4824C94.321 13.1895 94.8223 12.9681 95.4082 12.8184C95.9941 12.6686 96.6484 12.5938 97.3711 12.5938H99.4707ZM110.564 10.5332V19H108.748V8.43359H110.467L110.564 10.5332ZM110.193 13.3164L109.354 13.2871C109.36 12.5645 109.454 11.8971 109.637 11.2852C109.819 10.6667 110.089 10.1296 110.447 9.67383C110.805 9.2181 111.251 8.86654 111.785 8.61914C112.319 8.36523 112.938 8.23828 113.641 8.23828C114.135 8.23828 114.591 8.3099 115.008 8.45312C115.424 8.58984 115.786 8.80794 116.092 9.10742C116.398 9.4069 116.635 9.79102 116.805 10.2598C116.974 10.7285 117.059 11.2949 117.059 11.959V19H115.252V12.0469C115.252 11.4935 115.158 11.0508 114.969 10.7188C114.786 10.3867 114.526 10.1458 114.188 9.99609C113.849 9.83984 113.452 9.76172 112.996 9.76172C112.462 9.76172 112.016 9.85612 111.658 10.0449C111.3 10.2337 111.014 10.4941 110.799 10.8262C110.584 11.1582 110.428 11.5391 110.33 11.9688C110.239 12.3919 110.193 12.8411 110.193 13.3164ZM117.039 12.3203L115.828 12.6914C115.835 12.112 115.929 11.5553 116.111 11.0215C116.3 10.4876 116.57 10.0124 116.922 9.5957C117.28 9.17904 117.719 8.85026 118.24 8.60938C118.761 8.36198 119.357 8.23828 120.027 8.23828C120.594 8.23828 121.095 8.31315 121.531 8.46289C121.974 8.61263 122.345 8.84375 122.645 9.15625C122.951 9.46224 123.182 9.85612 123.338 10.3379C123.494 10.8197 123.572 11.3926 123.572 12.0566V19H121.756V12.0371C121.756 11.4447 121.661 10.9857 121.473 10.6602C121.29 10.3281 121.03 10.097 120.691 9.9668C120.359 9.83008 119.962 9.76172 119.5 9.76172C119.103 9.76172 118.751 9.83008 118.445 9.9668C118.139 10.1035 117.882 10.2923 117.674 10.5332C117.465 10.7676 117.306 11.0378 117.195 11.3438C117.091 11.6497 117.039 11.9753 117.039 12.3203ZM125.828 13.834V13.6094C125.828 12.8477 125.939 12.1413 126.16 11.4902C126.382 10.8327 126.701 10.263 127.117 9.78125C127.534 9.29297 128.038 8.91536 128.631 8.64844C129.223 8.375 129.887 8.23828 130.623 8.23828C131.365 8.23828 132.033 8.375 132.625 8.64844C133.224 8.91536 133.732 9.29297 134.148 9.78125C134.572 10.263 134.894 10.8327 135.115 11.4902C135.337 12.1413 135.447 12.8477 135.447 13.6094V13.834C135.447 14.5957 135.337 15.3021 135.115 15.9531C134.894 16.6042 134.572 17.1738 134.148 17.6621C133.732 18.1439 133.227 18.5215 132.635 18.7949C132.049 19.0618 131.385 19.1953 130.643 19.1953C129.9 19.1953 129.233 19.0618 128.641 18.7949C128.048 18.5215 127.54 18.1439 127.117 17.6621C126.701 17.1738 126.382 16.6042 126.16 15.9531C125.939 15.3021 125.828 14.5957 125.828 13.834ZM127.635 13.6094V13.834C127.635 14.3613 127.697 14.8594 127.82 15.3281C127.944 15.7904 128.13 16.2005 128.377 16.5586C128.631 16.9167 128.947 17.1999 129.324 17.4082C129.702 17.61 130.141 17.7109 130.643 17.7109C131.137 17.7109 131.57 17.61 131.941 17.4082C132.319 17.1999 132.632 16.9167 132.879 16.5586C133.126 16.2005 133.312 15.7904 133.436 15.3281C133.566 14.8594 133.631 14.3613 133.631 13.834V13.6094C133.631 13.0885 133.566 12.597 133.436 12.1348C133.312 11.666 133.123 11.2526 132.869 10.8945C132.622 10.5299 132.309 10.2435 131.932 10.0352C131.561 9.82682 131.124 9.72266 130.623 9.72266C130.128 9.72266 129.692 9.82682 129.314 10.0352C128.943 10.2435 128.631 10.5299 128.377 10.8945C128.13 11.2526 127.944 11.666 127.82 12.1348C127.697 12.597 127.635 13.0885 127.635 13.6094ZM140.77 17.3691L143.66 8.43359H145.506L141.707 19H140.496L140.77 17.3691ZM138.357 8.43359L141.336 17.418L141.541 19H140.33L136.502 8.43359H138.357ZM149.207 8.43359V19H147.391V8.43359H149.207ZM147.254 5.63086C147.254 5.33789 147.342 5.09049 147.518 4.88867C147.7 4.68685 147.967 4.58594 148.318 4.58594C148.663 4.58594 148.927 4.68685 149.109 4.88867C149.298 5.09049 149.393 5.33789 149.393 5.63086C149.393 5.91081 149.298 6.15169 149.109 6.35352C148.927 6.54883 148.663 6.64648 148.318 6.64648C147.967 6.64648 147.7 6.54883 147.518 6.35352C147.342 6.15169 147.254 5.91081 147.254 5.63086ZM156.492 19.1953C155.757 19.1953 155.089 19.0716 154.49 18.8242C153.898 18.5703 153.387 18.2155 152.957 17.7598C152.534 17.304 152.208 16.7637 151.98 16.1387C151.753 15.5137 151.639 14.8301 151.639 14.0879V13.6777C151.639 12.8184 151.766 12.0534 152.02 11.3828C152.273 10.7057 152.618 10.1328 153.055 9.66406C153.491 9.19531 153.986 8.84049 154.539 8.59961C155.092 8.35872 155.665 8.23828 156.258 8.23828C157.013 8.23828 157.664 8.36849 158.211 8.62891C158.764 8.88932 159.217 9.25391 159.568 9.72266C159.92 10.1849 160.18 10.7318 160.35 11.3633C160.519 11.9883 160.604 12.6719 160.604 13.4141V14.2246H152.713V12.75H158.797V12.6133C158.771 12.1445 158.673 11.6888 158.504 11.2461C158.341 10.8034 158.081 10.4388 157.723 10.1523C157.365 9.86589 156.876 9.72266 156.258 9.72266C155.848 9.72266 155.47 9.81055 155.125 9.98633C154.78 10.1556 154.484 10.4095 154.236 10.748C153.989 11.0866 153.797 11.5 153.66 11.9883C153.523 12.4766 153.455 13.0397 153.455 13.6777V14.0879C153.455 14.5892 153.523 15.0612 153.66 15.5039C153.803 15.9401 154.008 16.3242 154.275 16.6562C154.549 16.9883 154.878 17.2487 155.262 17.4375C155.652 17.6263 156.095 17.7207 156.59 17.7207C157.228 17.7207 157.768 17.5905 158.211 17.3301C158.654 17.0697 159.041 16.7214 159.373 16.2852L160.467 17.1543C160.239 17.4993 159.949 17.8281 159.598 18.1406C159.246 18.4531 158.813 18.707 158.299 18.9023C157.791 19.0977 157.189 19.1953 156.492 19.1953ZM167.195 13.834V13.6094C167.195 12.8477 167.306 12.1413 167.527 11.4902C167.749 10.8327 168.068 10.263 168.484 9.78125C168.901 9.29297 169.406 8.91536 169.998 8.64844C170.59 8.375 171.255 8.23828 171.99 8.23828C172.732 8.23828 173.4 8.375 173.992 8.64844C174.591 8.91536 175.099 9.29297 175.516 9.78125C175.939 10.263 176.261 10.8327 176.482 11.4902C176.704 12.1413 176.814 12.8477 176.814 13.6094V13.834C176.814 14.5957 176.704 15.3021 176.482 15.9531C176.261 16.6042 175.939 17.1738 175.516 17.6621C175.099 18.1439 174.594 18.5215 174.002 18.7949C173.416 19.0618 172.752 19.1953 172.01 19.1953C171.268 19.1953 170.6 19.0618 170.008 18.7949C169.415 18.5215 168.908 18.1439 168.484 17.6621C168.068 17.1738 167.749 16.6042 167.527 15.9531C167.306 15.3021 167.195 14.5957 167.195 13.834ZM169.002 13.6094V13.834C169.002 14.3613 169.064 14.8594 169.188 15.3281C169.311 15.7904 169.497 16.2005 169.744 16.5586C169.998 16.9167 170.314 17.1999 170.691 17.4082C171.069 17.61 171.508 17.7109 172.01 17.7109C172.505 17.7109 172.938 17.61 173.309 17.4082C173.686 17.1999 173.999 16.9167 174.246 16.5586C174.493 16.2005 174.679 15.7904 174.803 15.3281C174.933 14.8594 174.998 14.3613 174.998 13.834V13.6094C174.998 13.0885 174.933 12.597 174.803 12.1348C174.679 11.666 174.49 11.2526 174.236 10.8945C173.989 10.5299 173.676 10.2435 173.299 10.0352C172.928 9.82682 172.492 9.72266 171.99 9.72266C171.495 9.72266 171.059 9.82682 170.682 10.0352C170.311 10.2435 169.998 10.5299 169.744 10.8945C169.497 11.2526 169.311 11.666 169.188 12.1348C169.064 12.597 169.002 13.0885 169.002 13.6094ZM180.887 10.0938V19H179.08V8.43359H180.838L180.887 10.0938ZM184.188 8.375L184.178 10.0547C184.028 10.0221 183.885 10.0026 183.748 9.99609C183.618 9.98307 183.468 9.97656 183.299 9.97656C182.882 9.97656 182.514 10.0417 182.195 10.1719C181.876 10.3021 181.606 10.4844 181.385 10.7188C181.163 10.9531 180.988 11.2331 180.857 11.5586C180.734 11.8776 180.652 12.2292 180.613 12.6133L180.105 12.9062C180.105 12.2682 180.167 11.6693 180.291 11.1094C180.421 10.5495 180.62 10.0547 180.887 9.625C181.154 9.1888 181.492 8.85026 181.902 8.60938C182.319 8.36198 182.814 8.23828 183.387 8.23828C183.517 8.23828 183.667 8.25456 183.836 8.28711C184.005 8.31315 184.122 8.34245 184.188 8.375ZM197.049 17.1934V11.7539C197.049 11.3372 196.964 10.9759 196.795 10.6699C196.632 10.3574 196.385 10.1165 196.053 9.94727C195.721 9.77799 195.311 9.69336 194.822 9.69336C194.367 9.69336 193.966 9.77148 193.621 9.92773C193.283 10.084 193.016 10.2891 192.82 10.543C192.632 10.7969 192.537 11.0703 192.537 11.3633H190.73C190.73 10.9857 190.828 10.6113 191.023 10.2402C191.219 9.86914 191.499 9.53385 191.863 9.23438C192.234 8.92839 192.677 8.6875 193.191 8.51172C193.712 8.32943 194.292 8.23828 194.93 8.23828C195.698 8.23828 196.375 8.36849 196.961 8.62891C197.553 8.88932 198.016 9.2832 198.348 9.81055C198.686 10.3314 198.855 10.9857 198.855 11.7734V16.6953C198.855 17.0469 198.885 17.4212 198.943 17.8184C199.008 18.2155 199.103 18.5573 199.227 18.8438V19H197.342C197.251 18.7917 197.179 18.515 197.127 18.1699C197.075 17.8184 197.049 17.4928 197.049 17.1934ZM197.361 12.5938L197.381 13.8633H195.555C195.04 13.8633 194.581 13.9056 194.178 13.9902C193.774 14.0684 193.436 14.1888 193.162 14.3516C192.889 14.5143 192.68 14.7194 192.537 14.9668C192.394 15.2077 192.322 15.4909 192.322 15.8164C192.322 16.1484 192.397 16.4512 192.547 16.7246C192.697 16.998 192.921 17.2161 193.221 17.3789C193.527 17.5352 193.901 17.6133 194.344 17.6133C194.897 17.6133 195.385 17.4961 195.809 17.2617C196.232 17.0273 196.567 16.7409 196.814 16.4023C197.068 16.0638 197.205 15.735 197.225 15.416L197.996 16.2852C197.951 16.5586 197.827 16.8613 197.625 17.1934C197.423 17.5254 197.153 17.8444 196.814 18.1504C196.482 18.4499 196.085 18.7005 195.623 18.9023C195.167 19.0977 194.653 19.1953 194.08 19.1953C193.364 19.1953 192.736 19.0553 192.195 18.7754C191.661 18.4954 191.245 18.1211 190.945 17.6523C190.652 17.1771 190.506 16.6465 190.506 16.0605C190.506 15.4941 190.617 14.9961 190.838 14.5664C191.059 14.1302 191.378 13.7689 191.795 13.4824C192.212 13.1895 192.713 12.9681 193.299 12.8184C193.885 12.6686 194.539 12.5938 195.262 12.5938H197.361ZM212.811 16.1973C212.811 15.9368 212.752 15.696 212.635 15.4746C212.524 15.2467 212.293 15.0417 211.941 14.8594C211.596 14.6706 211.076 14.5078 210.379 14.3711C209.793 14.2474 209.262 14.1009 208.787 13.9316C208.318 13.7624 207.918 13.5573 207.586 13.3164C207.26 13.0755 207.01 12.7923 206.834 12.4668C206.658 12.1413 206.57 11.7604 206.57 11.3242C206.57 10.9076 206.661 10.5137 206.844 10.1426C207.033 9.77148 207.296 9.44271 207.635 9.15625C207.98 8.86979 208.393 8.64518 208.875 8.48242C209.357 8.31966 209.894 8.23828 210.486 8.23828C211.333 8.23828 212.055 8.38802 212.654 8.6875C213.253 8.98698 213.712 9.38737 214.031 9.88867C214.35 10.3835 214.51 10.9336 214.51 11.5391H212.703C212.703 11.2461 212.615 10.9629 212.439 10.6895C212.27 10.4095 212.02 10.1784 211.688 9.99609C211.362 9.8138 210.962 9.72266 210.486 9.72266C209.985 9.72266 209.578 9.80078 209.266 9.95703C208.96 10.1068 208.735 10.2988 208.592 10.5332C208.455 10.7676 208.387 11.015 208.387 11.2754C208.387 11.4707 208.419 11.6465 208.484 11.8027C208.556 11.9525 208.68 12.0924 208.855 12.2227C209.031 12.3464 209.279 12.4635 209.598 12.5742C209.917 12.6849 210.324 12.7956 210.818 12.9062C211.684 13.1016 212.397 13.3359 212.957 13.6094C213.517 13.8828 213.934 14.2181 214.207 14.6152C214.48 15.0124 214.617 15.4941 214.617 16.0605C214.617 16.5228 214.52 16.946 214.324 17.3301C214.135 17.7142 213.859 18.0462 213.494 18.3262C213.136 18.5996 212.706 18.8145 212.205 18.9707C211.71 19.1204 211.154 19.1953 210.535 19.1953C209.604 19.1953 208.816 19.0293 208.172 18.6973C207.527 18.3652 207.039 17.9355 206.707 17.4082C206.375 16.8809 206.209 16.3242 206.209 15.7383H208.025C208.051 16.2331 208.195 16.627 208.455 16.9199C208.715 17.2064 209.035 17.4115 209.412 17.5352C209.79 17.6523 210.164 17.7109 210.535 17.7109C211.03 17.7109 211.443 17.6458 211.775 17.5156C212.114 17.3854 212.371 17.2064 212.547 16.9785C212.723 16.7507 212.811 16.4902 212.811 16.1973ZM221.375 19.1953C220.639 19.1953 219.972 19.0716 219.373 18.8242C218.781 18.5703 218.27 18.2155 217.84 17.7598C217.417 17.304 217.091 16.7637 216.863 16.1387C216.635 15.5137 216.521 14.8301 216.521 14.0879V13.6777C216.521 12.8184 216.648 12.0534 216.902 11.3828C217.156 10.7057 217.501 10.1328 217.938 9.66406C218.374 9.19531 218.868 8.84049 219.422 8.59961C219.975 8.35872 220.548 8.23828 221.141 8.23828C221.896 8.23828 222.547 8.36849 223.094 8.62891C223.647 8.88932 224.1 9.25391 224.451 9.72266C224.803 10.1849 225.063 10.7318 225.232 11.3633C225.402 11.9883 225.486 12.6719 225.486 13.4141V14.2246H217.596V12.75H223.68V12.6133C223.654 12.1445 223.556 11.6888 223.387 11.2461C223.224 10.8034 222.964 10.4388 222.605 10.1523C222.247 9.86589 221.759 9.72266 221.141 9.72266C220.73 9.72266 220.353 9.81055 220.008 9.98633C219.663 10.1556 219.367 10.4095 219.119 10.748C218.872 11.0866 218.68 11.5 218.543 11.9883C218.406 12.4766 218.338 13.0397 218.338 13.6777V14.0879C218.338 14.5892 218.406 15.0612 218.543 15.5039C218.686 15.9401 218.891 16.3242 219.158 16.6562C219.432 16.9883 219.76 17.2487 220.145 17.4375C220.535 17.6263 220.978 17.7207 221.473 17.7207C222.111 17.7207 222.651 17.5905 223.094 17.3301C223.536 17.0697 223.924 16.7214 224.256 16.2852L225.35 17.1543C225.122 17.4993 224.832 17.8281 224.48 18.1406C224.129 18.4531 223.696 18.707 223.182 18.9023C222.674 19.0977 222.072 19.1953 221.375 19.1953ZM229.402 10.0938V19H227.596V8.43359H229.354L229.402 10.0938ZM232.703 8.375L232.693 10.0547C232.544 10.0221 232.4 10.0026 232.264 9.99609C232.133 9.98307 231.984 9.97656 231.814 9.97656C231.398 9.97656 231.03 10.0417 230.711 10.1719C230.392 10.3021 230.122 10.4844 229.9 10.7188C229.679 10.9531 229.503 11.2331 229.373 11.5586C229.249 11.8776 229.168 12.2292 229.129 12.6133L228.621 12.9062C228.621 12.2682 228.683 11.6693 228.807 11.1094C228.937 10.5495 229.135 10.0547 229.402 9.625C229.669 9.1888 230.008 8.85026 230.418 8.60938C230.835 8.36198 231.329 8.23828 231.902 8.23828C232.033 8.23828 232.182 8.25456 232.352 8.28711C232.521 8.31315 232.638 8.34245 232.703 8.375ZM236.336 8.43359V19H234.52V8.43359H236.336ZM234.383 5.63086C234.383 5.33789 234.471 5.09049 234.646 4.88867C234.829 4.68685 235.096 4.58594 235.447 4.58594C235.792 4.58594 236.056 4.68685 236.238 4.88867C236.427 5.09049 236.521 5.33789 236.521 5.63086C236.521 5.91081 236.427 6.15169 236.238 6.35352C236.056 6.54883 235.792 6.64648 235.447 6.64648C235.096 6.64648 234.829 6.54883 234.646 6.35352C234.471 6.15169 234.383 5.91081 234.383 5.63086ZM243.621 19.1953C242.885 19.1953 242.218 19.0716 241.619 18.8242C241.027 18.5703 240.516 18.2155 240.086 17.7598C239.663 17.304 239.337 16.7637 239.109 16.1387C238.882 15.5137 238.768 14.8301 238.768 14.0879V13.6777C238.768 12.8184 238.895 12.0534 239.148 11.3828C239.402 10.7057 239.747 10.1328 240.184 9.66406C240.62 9.19531 241.115 8.84049 241.668 8.59961C242.221 8.35872 242.794 8.23828 243.387 8.23828C244.142 8.23828 244.793 8.36849 245.34 8.62891C245.893 8.88932 246.346 9.25391 246.697 9.72266C247.049 10.1849 247.309 10.7318 247.479 11.3633C247.648 11.9883 247.732 12.6719 247.732 13.4141V14.2246H239.842V12.75H245.926V12.6133C245.9 12.1445 245.802 11.6888 245.633 11.2461C245.47 10.8034 245.21 10.4388 244.852 10.1523C244.493 9.86589 244.005 9.72266 243.387 9.72266C242.977 9.72266 242.599 9.81055 242.254 9.98633C241.909 10.1556 241.613 10.4095 241.365 10.748C241.118 11.0866 240.926 11.5 240.789 11.9883C240.652 12.4766 240.584 13.0397 240.584 13.6777V14.0879C240.584 14.5892 240.652 15.0612 240.789 15.5039C240.932 15.9401 241.137 16.3242 241.404 16.6562C241.678 16.9883 242.007 17.2487 242.391 17.4375C242.781 17.6263 243.224 17.7207 243.719 17.7207C244.357 17.7207 244.897 17.5905 245.34 17.3301C245.783 17.0697 246.17 16.7214 246.502 16.2852L247.596 17.1543C247.368 17.4993 247.078 17.8281 246.727 18.1406C246.375 18.4531 245.942 18.707 245.428 18.9023C244.92 19.0977 244.318 19.1953 243.621 19.1953ZM255.994 16.1973C255.994 15.9368 255.936 15.696 255.818 15.4746C255.708 15.2467 255.477 15.0417 255.125 14.8594C254.78 14.6706 254.259 14.5078 253.562 14.3711C252.977 14.2474 252.446 14.1009 251.971 13.9316C251.502 13.7624 251.102 13.5573 250.77 13.3164C250.444 13.0755 250.193 12.7923 250.018 12.4668C249.842 12.1413 249.754 11.7604 249.754 11.3242C249.754 10.9076 249.845 10.5137 250.027 10.1426C250.216 9.77148 250.48 9.44271 250.818 9.15625C251.163 8.86979 251.577 8.64518 252.059 8.48242C252.54 8.31966 253.077 8.23828 253.67 8.23828C254.516 8.23828 255.239 8.38802 255.838 8.6875C256.437 8.98698 256.896 9.38737 257.215 9.88867C257.534 10.3835 257.693 10.9336 257.693 11.5391H255.887C255.887 11.2461 255.799 10.9629 255.623 10.6895C255.454 10.4095 255.203 10.1784 254.871 9.99609C254.546 9.8138 254.145 9.72266 253.67 9.72266C253.169 9.72266 252.762 9.80078 252.449 9.95703C252.143 10.1068 251.919 10.2988 251.775 10.5332C251.639 10.7676 251.57 11.015 251.57 11.2754C251.57 11.4707 251.603 11.6465 251.668 11.8027C251.74 11.9525 251.863 12.0924 252.039 12.2227C252.215 12.3464 252.462 12.4635 252.781 12.5742C253.1 12.6849 253.507 12.7956 254.002 12.9062C254.868 13.1016 255.581 13.3359 256.141 13.6094C256.701 13.8828 257.117 14.2181 257.391 14.6152C257.664 15.0124 257.801 15.4941 257.801 16.0605C257.801 16.5228 257.703 16.946 257.508 17.3301C257.319 17.7142 257.042 18.0462 256.678 18.3262C256.32 18.5996 255.89 18.8145 255.389 18.9707C254.894 19.1204 254.337 19.1953 253.719 19.1953C252.788 19.1953 252 19.0293 251.355 18.6973C250.711 18.3652 250.223 17.9355 249.891 17.4082C249.559 16.8809 249.393 16.3242 249.393 15.7383H251.209C251.235 16.2331 251.378 16.627 251.639 16.9199C251.899 17.2064 252.218 17.4115 252.596 17.5352C252.973 17.6523 253.348 17.7109 253.719 17.7109C254.214 17.7109 254.627 17.6458 254.959 17.5156C255.298 17.3854 255.555 17.2064 255.73 16.9785C255.906 16.7507 255.994 16.4902 255.994 16.1973Z" fill="black"/>
</svg>
